# xmcd CD database file
# Copyright (C) 1995-1998 Ti Kan
#
# Track frame offsets:
#	150
#	19121
#	28884
#	34691
#	47064
#	53435
#	57200
#	66599
#	80838
#	94313
#	104763
#	111268
#	115757
#	118195
#	124999
#	139992
#	150587
#	161798
#	164311
#	176915
#	187618
#	194107
#	206976
#	222157
#	228179
#	240784
#	264141
#
# Disc length: 3641 seconds
#
# Revision: 1
# Processed by: cddbd v1.4b41PL1 Copyright (c) Steve Scherf et al.
# Submitted via: CDex 1.30
#
DISCID=8a0e371b
DTITLE=Mel Bay - 2000 Blues Guitar
DYEAR=2000
DGENRE=Blues
TTITLE0=Muriel Anderson - Blues for Macedonia
TTITLE1=Duck Baker - Still Staggerin'
TTITLE2=Mickey Baker - Alley Music
TTITLE3=Carlos Barbosa-Lima - St. Louis Blues
TTITLE4=William Bay - Blue Dawn
TTITLE5=William Bay - Russel Street
TTITLE6=Larry Bolles - Icicle Blues
TTITLE7=Ben Bolt - Gardenia Blues
TTITLE8=Dan Bowden - Rosenannon Blues
TTITLE9=Dix Bruce - Frogs for Snakes
TTITLE10=Mike Christiansen - June Rag
TTITLE11=Mike Christiansen - Oscar's Blues
TTITLE12=Mike Christiansen - Ya Da Ya Da
TTITLE13=Alan de Mause - Blues for Phyllis
TTITLE14=Alan de Mause - You Have Your Basic Bebop Blues
TTITLE15=Craig Dobbins - au Contraire
TTITLE16=Steven Eckels - Deep River Blues
TTITLE17=Jim Ferguson - Intro Blues
TTITLE18=Buddy Fite - Low Down
TTITLE19=Tommy Flint - Memories of Mose
TTITLE20=Tommy Flint - Blues foe Amos Johnson
TTITLE21=John Griggs - Try Me Blues
TTITLE22=Stefan Grossman - A Heart Much Obliged
TTITLE23=Al Hendrickson - Blues Lite
TTITLE24=Roger Hudson - Blue Stairway
TTITLE25=Jean-Felix Lalanne - Sweet Sadness
TTITLE26=Paul Lolax - JoBlues
EXTD=\nYEAR: 2000  ID3G:   0
EXTT0=
EXTT1=
EXTT2=
EXTT3=
EXTT4=
EXTT5=
EXTT6=
EXTT7=
EXTT8=
EXTT9=
EXTT10=
EXTT11=
EXTT12=
EXTT13=
EXTT14=
EXTT15=
EXTT16=
EXTT17=
EXTT18=
EXTT19=
EXTT20=
EXTT21=
EXTT22=
EXTT23=
EXTT24=
EXTT25=
EXTT26=
PLAYORDER=
